<svg width="2920" height="1520" viewBox="0 0 2920 1520" fill="none" xmlns="http://www.w3.org/2000/svg">
<g clip-path="url(#clip0_1_2051)">
<rect width="2920" height="1520" fill="white"/>
<path d="M514.59 110.961C548.77 114.867 577.578 117.797 601.016 119.75C624.453 120.727 643.008 121.703 656.68 122.68C673.281 123.656 686.465 124.145 696.23 124.145C712.832 124.145 731.875 123.656 753.359 122.68C771.914 121.703 793.398 120.238 817.812 118.285C843.203 115.355 870.547 110.961 899.844 105.102C886.172 119.75 874.941 133.91 866.152 147.582C857.363 160.277 850.527 171.996 845.645 182.738C839.785 194.457 834.902 205.199 830.996 214.965C827.09 227.66 822.695 247.191 817.812 273.559C812.93 296.02 807.559 327.758 801.699 368.773C796.816 409.789 790.469 463.5 782.656 529.906C815.859 530.883 844.668 531.371 869.082 531.371C893.496 530.395 914.004 529.906 930.605 529.906H978.945C992.617 528.93 1008.24 527.953 1025.82 526.977C1055.12 526 1099.55 523.07 1159.12 518.188C1164 473.266 1166.45 434.691 1166.45 402.465C1167.42 369.262 1166.93 341.43 1164.98 318.969C1163.03 293.578 1160.1 272.094 1156.19 254.516C1153.26 244.75 1148.87 233.031 1143.01 219.359C1138.12 207.641 1131.29 193.48 1122.5 176.879C1114.69 159.301 1103.95 138.305 1090.27 113.891C1115.66 117.797 1138.12 120.727 1157.66 122.68C1178.16 123.656 1195.25 124.633 1208.93 125.609C1224.55 126.586 1237.73 127.074 1248.48 127.074C1259.22 127.074 1273.38 126.586 1290.96 125.609C1305.61 124.633 1323.67 124.145 1345.16 124.145C1366.64 123.168 1393.01 121.703 1424.26 119.75C1416.45 133.422 1409.61 147.582 1403.75 162.23C1397.89 176.879 1393.01 190.062 1389.1 201.781C1385.2 215.453 1381.29 229.125 1377.38 242.797C1372.5 263.305 1368.11 293.09 1364.2 332.152C1361.27 371.215 1358.34 414.672 1355.41 462.523C1353.46 510.375 1351.5 560.18 1349.55 611.938C1348.57 663.695 1347.6 712.523 1346.62 758.422C1346.62 804.32 1347.11 845.336 1348.09 881.469C1349.06 916.625 1351.02 941.527 1353.95 956.176C1356.88 973.754 1361.76 991.82 1368.59 1010.38C1374.45 1026.98 1382.27 1045.04 1392.03 1064.57C1401.8 1083.13 1414.49 1100.71 1430.12 1117.31L1077.09 1143.68C1091.74 1130 1103.46 1116.82 1112.25 1104.12C1121.04 1090.45 1127.87 1078.73 1132.75 1068.97C1137.64 1058.23 1141.05 1047.97 1143.01 1038.21C1143.98 1026.49 1145.45 1005.98 1147.4 976.684C1149.36 952.27 1151.31 917.602 1153.26 872.68C1155.21 827.758 1157.17 768.188 1159.12 693.969C1145.45 693.969 1128.85 694.457 1109.32 695.434C1090.76 695.434 1073.18 695.922 1056.58 696.898C1037.05 697.875 1016.54 698.363 995.059 698.363C973.574 699.34 951.113 700.316 927.676 701.293C908.145 703.246 886.172 705.199 861.758 707.152C838.32 708.129 814.883 709.594 791.445 711.547C789.492 752.562 789.492 788.695 791.445 819.945C793.398 850.219 796.328 876.098 800.234 897.582C804.141 922.973 809.023 944.945 814.883 963.5C820.742 981.078 827.09 998.656 833.926 1016.23C839.785 1031.86 846.621 1048.46 854.434 1066.04C863.223 1083.62 872.012 1099.24 880.801 1112.91C862.246 1110.96 845.156 1109.5 829.531 1108.52C813.906 1106.57 800.234 1104.61 788.516 1102.66C774.844 1101.68 761.66 1100.71 748.965 1099.73C736.27 1099.73 721.133 1099.24 703.555 1098.27C687.93 1097.29 668.398 1096.8 644.961 1096.8C621.523 1095.82 594.18 1095.34 562.93 1095.34C581.484 1076.78 596.133 1058.71 606.875 1041.14C618.594 1022.58 626.895 1005.98 631.777 991.332C637.637 973.754 641.543 957.641 643.496 942.992C644.473 930.297 644.961 906.371 644.961 871.215C645.938 836.059 645.938 796.02 644.961 751.098C644.961 705.199 644.473 657.348 643.496 607.543C642.52 556.762 641.055 509.398 639.102 465.453C638.125 421.508 636.66 383.91 634.707 352.66C633.73 320.434 632.754 300.414 631.777 292.602C626.895 275.023 619.57 255.98 609.805 235.473C601.016 218.871 589.297 199.828 574.648 178.344C560 155.883 539.98 133.422 514.59 110.961Z" fill="black"/>
<path d="M1554.3 264.988C1582.62 269.871 1607.52 273.289 1629 275.242C1651.46 277.195 1670.02 278.66 1684.67 279.637C1702.25 280.613 1717.38 281.102 1730.08 281.102C1742.77 281.102 1760.84 280.125 1784.28 278.172C1803.81 276.219 1829.2 273.777 1860.45 270.848C1892.68 267.918 1932.23 263.035 1979.1 256.199C1965.43 260.105 1952.73 271.336 1941.02 289.891C1930.27 307.469 1920.51 326.512 1911.72 347.02C1900.98 371.434 1891.7 398.289 1883.89 427.586C1877.05 453.953 1868.26 490.086 1857.52 535.984C1847.75 581.883 1837.99 631.688 1828.22 685.398C1819.43 739.109 1812.6 793.797 1807.71 849.461C1802.83 904.148 1801.86 954.441 1804.79 1000.34C1808.69 1046.24 1817.97 1084.32 1832.62 1114.6C1847.27 1143.89 1869.73 1159.52 1900 1161.47C1945.9 1165.38 1983.98 1165.87 2014.26 1162.94C2045.51 1159.03 2070.9 1153.66 2090.43 1146.82C2109.96 1139.99 2125.1 1132.18 2135.84 1123.39C2146.58 1113.62 2154.88 1104.34 2160.74 1095.55C2176.37 1073.09 2192.48 1044.29 2209.08 1009.13C2225.68 973.973 2240.33 940.281 2253.03 908.055C2266.7 875.828 2277.93 848.484 2286.72 826.023C2295.51 803.562 2299.9 792.82 2299.9 793.797C2299.9 795.75 2299.41 806.98 2298.44 827.488C2298.44 847.02 2297.95 870.945 2296.97 899.266C2296.97 926.609 2296.48 955.418 2295.51 985.691C2295.51 1015.96 2295.02 1041.84 2294.04 1063.33C2293.07 1080.91 2292.09 1100.44 2291.11 1121.92C2290.14 1140.48 2289.16 1162.45 2288.18 1187.84C2288.18 1213.23 2287.21 1241.06 2285.25 1271.34C2244.24 1268.41 2205.18 1266.45 2168.07 1265.48C2130.96 1264.5 2098.24 1264.01 2069.92 1264.01C2036.72 1264.01 2005.96 1264.5 1977.64 1265.48C1947.36 1266.45 1912.21 1267.92 1872.17 1269.87C1837.99 1271.82 1795.51 1274.27 1744.73 1277.2C1693.95 1279.15 1635.35 1282.08 1568.95 1285.98C1576.76 1272.31 1583.11 1259.62 1587.99 1247.9C1593.85 1236.18 1598.24 1226.41 1601.17 1218.6C1605.08 1208.84 1607.52 1200.54 1608.5 1193.7C1614.36 1162.45 1619.24 1122.9 1623.14 1075.05C1627.05 1026.22 1629.98 974.461 1631.93 919.773C1634.86 865.086 1636.33 809.422 1636.33 752.781C1637.3 695.164 1637.3 641.941 1636.33 593.113C1635.35 544.285 1633.4 501.805 1630.47 465.672C1628.52 429.539 1625.59 404.637 1621.68 390.965C1616.8 375.34 1610.94 359.715 1604.1 344.09C1598.24 330.418 1590.92 316.746 1582.13 303.074C1574.32 288.426 1565.04 275.73 1554.3 264.988Z" fill="black"/>
</g>
<defs>
<clipPath id="clip0_1_2051">
<rect width="2920" height="1520" fill="white"/>
</clipPath>
</defs>
</svg>
